<svg width="240" height="240" viewBox="0 0 240 240" fill="none" xmlns="http://www.w3.org/2000/svg">
<path d="M119.999 240C186.273 240 239.999 186.274 239.999 120C239.999 53.7265 186.273 0.000976562 119.999 0.000976562C53.7255 0.000976562 0 53.7265 0 120C0 186.274 53.7255 240 119.999 240Z" fill="#62BDE4"/>
<mask id="mask0" mask-type="alpha" maskUnits="userSpaceOnUse" x="0" y="0" width="240" height="240">
<path d="M119.999 240C186.273 240 239.999 186.274 239.999 120C239.999 53.7265 186.273 0.000976562 119.999 0.000976562C53.7255 0.000976562 0 53.7265 0 120C0 186.274 53.7255 240 119.999 240Z" fill="#62BDE4"/>
</mask>
<g mask="url(#mask0)">
<path d="M161.627 196.371H161.601C158.998 194.4 156.272 192.648 153.401 191.066C153.327 191.018 153.254 190.969 153.157 190.945C139.577 183.449 130.379 168.993 130.379 152.372L109.815 152.274C109.815 168.945 100.543 183.474 86.8418 190.944C86.8418 190.944 86.8176 190.944 86.7933 190.968C83.8965 192.549 81.1234 194.326 78.4944 196.273C61.4589 208.952 50.4353 229.224 50.4353 252.1H189.563C189.565 229.274 178.59 209.049 161.627 196.371Z" fill="#ECC19C"/>
<path d="M189.563 252.092H50.4341C50.4341 229.216 61.4577 208.945 78.4931 196.265C81.1221 194.319 83.8952 192.542 86.7908 190.96C86.8163 190.936 86.8405 190.936 86.8405 190.936C89.0792 189.695 91.2209 188.283 93.1917 186.677C100.006 193.662 109.522 197.994 120.059 197.994C130.573 197.994 140.064 193.662 146.877 186.701C148.824 188.307 150.942 189.719 153.156 190.936C153.253 190.96 153.327 191.009 153.399 191.057C156.271 192.639 158.997 194.391 161.6 196.362H161.626C178.588 209.041 189.563 229.265 189.563 252.092Z" fill="#9C7754"/>
<path d="M66.6072 48.5883V103.229C66.6072 140.191 99.0543 170.153 120.001 170.153C140.944 170.153 173.394 140.191 173.394 103.229V48.5883H66.6072Z" fill="#ECC19C"/>
<path d="M114.165 18.496C133.925 18.496 153.059 23.9606 164.696 38.5316C178.523 42.0777 184.96 61.0983 184.96 75.2596C184.96 88.6532 177.911 97.7965 173.463 101.197C173.463 80.3095 165.017 61.8059 152.025 50.3307C144.901 56.1653 132.265 61.0648 117.437 63.0955C102.48 65.1581 88.8445 63.8047 80.4307 60.0647C72.5004 71.1215 67.7297 85.4986 67.7297 101.197C62.5185 97.8663 55.488 84.156 55.488 75.2596C55.488 50.3307 79.0595 18.496 114.165 18.496Z" fill="#333333"/>
</g>
</svg>
